<?xml version="1.0" encoding="utf-8"?>
<!-- Svg Vector Icons : http://www.onlinewebfonts.com/icon -->
<!DOCTYPE svg PUBLIC "-//W3C//DTD SVG 1.1//EN" "http://www.w3.org/Graphics/SVG/1.1/DTD/svg11.dtd">
<svg version="1.1" xmlns="http://www.w3.org/2000/svg" xmlns:xlink="http://www.w3.org/1999/xlink" x="0px" y="0px" viewBox="0 0 1000 1000" enable-background="new 0 0 1000 1000" xml:space="preserve">
<metadata> Svg Vector Icons : http://www.onlinewebfonts.com/icon </metadata>
<g><g transform="translate(0.000000,512.000000) scale(0.100000,-0.100000)"><path d="M4879.2,4997.3c-78.6-34.5-159.1-132.2-172.5-208.9c-5.7-34.5-9.6-364.1-5.7-735.9c5.7-645.8,7.7-676.5,46-726.3c74.7-101.6,136.1-132.2,256.8-132.2c120.7,0,182,30.7,256.8,132.2c38.3,51.7,40.2,74.7,40.2,778c0,703.3-1.9,726.3-40.2,778c-21.1,28.7-61.3,70.9-88.2,90.1C5109.1,5020.3,4955.8,5033.7,4879.2,4997.3z"/><path d="M1621.4,3655.8c-128.4-55.6-201.2-201.2-172.5-350.7c9.6-63.2,82.4-143.7,523.2-584.5c551.9-551.9,557.7-555.7,726.3-523.2c93.9,17.2,208.9,132.2,226.1,226.1c32.6,166.7,26.8,176.3-504,711c-270.2,272.1-519.3,505.9-553.8,521.3C1790,3688.4,1696.1,3688.4,1621.4,3655.8z"/><path d="M8137,3655.8c-30.7-15.3-279.8-249.1-550-521.3c-530.8-534.7-536.6-544.2-504-711c17.3-93.9,132.2-208.9,226.1-226.1c168.6-32.6,174.4-26.8,716.7,513.6c352.6,350.7,509.7,521.2,525.1,565.3c42.2,130.3-3.8,268.3-120.7,354.5C8365,3678.8,8213.6,3692.2,8137,3655.8z"/><path d="M4668.4,2856.7C3767.7,2736,2943.6,2140,2531.6,1312.1c-176.3-356.4-262.5-686.1-281.7-1088.5c-21.1-429.3,55.6-793.4,276-1306.9c7.7-19.2-235.7-24.9-1111.5-28.8c-1100-5.7-1123-5.7-1174.7-46c-101.6-74.7-132.2-136.1-132.2-256.8c0-120.7,30.7-182.1,132.2-256.8l51.7-40.2h4712.3H9716l51.7,40.2c101.6,74.7,132.2,136.1,132.2,256.8c0,120.7-30.7,182.1-132.2,256.8c-51.7,40.3-74.7,40.3-1172.8,46c-615.2,1.9-1119.1,7.7-1119.1,9.6c0,1.9,30.7,76.7,67.1,164.8c408.2,965.8,231.9,2027.5-471.4,2853.4c-381.4,448.4-986.9,801-1571.4,914.1C5306.5,2868.2,4854.3,2883.5,4668.4,2856.7z M5304.6,2243.5c390.9-51.7,793.4-220.4,1078.9-452.3c818.3-666.9,1008-1910.6,429.3-2826.6l-46-72.8h-1763h-1763l-51.7,82.4c-187.8,297-306.6,672.6-325.8,1029.1c-19.2,400.5,47.9,739.7,224.2,1101.9c208.9,431.2,500.2,720.5,929.4,929.4c126.5,61.3,285.5,126.5,354.5,143.7C4668.4,2258.8,5015.2,2283.7,5304.6,2243.5z"/><path d="M279.9,398C151.5,342.5,78.7,194.9,105.5,51.2c17.2-90.1,113.1-195.5,199.3-220.4c46-13.4,306.6-19.2,755-15.3c655.4,5.8,686,7.7,735.9,46C1897.3-63.8,1928-2.5,1928,118.2c0,120.7-30.7,182.1-132.2,256.8c-49.8,38.3-78.6,40.2-755,44.1C485,422.9,325.9,419.1,279.9,398z"/><path d="M8251.9,398c-128.4-55.6-201.2-203.1-174.4-346.8c17.2-90.1,113.1-195.5,199.3-220.4c46-13.4,306.6-19.2,755-15.3c655.4,5.8,686.1,7.7,735.9,46C9869.3-63.8,9900-2.5,9900,118.2c0,120.7-30.7,182.1-132.2,256.8c-49.8,38.3-78.6,40.2-755,44.1C8457,422.9,8297.9,419.1,8251.9,398z"/><path d="M4860-2371.1c-30.7-19.2-283.6-262.5-559.6-540.4c-540.4-546.2-546.2-551.9-513.6-720.6c17.2-93.9,132.2-208.9,226.1-226.1c151.4-28.8,197.4-3.8,448.4,243.4l233.8,231.9l5.8-605.6c5.7-576.8,7.7-607.5,46-657.3c74.7-101.6,136.1-132.2,256.8-132.2c120.7,0,182,30.7,256.8,132.2c38.3,49.8,40.2,80.5,46,657.3l5.7,605.6l233.8-231.9c251.1-247.2,297-272.1,448.4-243.4c93.9,17.2,208.9,132.2,226.1,226.1c32.6,168.6,28.7,174.4-523.2,728.2c-281.7,283.6-534.7,527-563.4,542.3C5061.2-2323.2,4929-2327,4860-2371.1z"/></g></g>
</svg>